<svg xmlns="http://www.w3.org/2000/svg" width="26.343" height="34.584" viewBox="0 0 26.343 34.584">
  <g id="picture" transform="translate(-61)" opacity="0.8">
    <path id="Trazado_129" data-name="Trazado 129" d="M61,335.04a1.013,1.013,0,0,0,1.013,1.013h3.222a3.027,3.027,0,0,0,5.714,0H86.33a1.013,1.013,0,0,0,0-2.026H70.95a3.027,3.027,0,0,0-5.714,0H62.013A1.013,1.013,0,0,0,61,335.04Z" transform="translate(0 -309.575)" fill="#fff"/>
    <path id="Trazado_130" data-name="Trazado 130" d="M62.013,426.053H75.367a3.027,3.027,0,0,0,5.714,0H86.33a1.013,1.013,0,0,0,0-2.026H81.081a3.027,3.027,0,0,0-5.714,0H62.013a1.013,1.013,0,0,0,0,2.026Z" transform="translate(0 -393.495)" fill="#fff"/>
    <path id="Trazado_131" data-name="Trazado 131" d="M86.33,0H62.013A1,1,0,0,0,61,1.013V18.96L67.383,12.6a.979.979,0,0,1,1.418,0l3.344,3.323,7.4-7.376a.979.979,0,0,1,1.418,0l6.383,6.363V1.013A1,1,0,0,0,86.33,0ZM70.119,10.267a3.04,3.04,0,1,1,3.04-3.04A3.036,3.036,0,0,1,70.119,10.267Z" transform="translate(0)" fill="#fff"/>
    <path id="Trazado_132" data-name="Trazado 132" d="M107.121,166.91V165.3l-7.092-7.092L92.64,165.6a1.013,1.013,0,0,1-1.433,0l-3.336-3.336-5.66,5.66h23.9A1.013,1.013,0,0,0,107.121,166.91Z" transform="translate(-19.778 -147.524)" fill="#fff"/>
    <ellipse id="Elipse_47" data-name="Elipse 47" cx="1" cy="1.5" rx="1" ry="1.5" transform="translate(69.297 5.603)" fill="#fff"/>
  </g>
</svg>
