<svg xmlns="http://www.w3.org/2000/svg" width="35.217" height="36.053" viewBox="0 0 35.217 36.053">
  <g id="system" transform="translate(-15.207 -9.103)" opacity="0.8">
    <path id="Trazado_85" data-name="Trazado 85" d="M21,15h1.355v1.355H21Z" transform="translate(2.334 0.199)" fill="#fff"/>
    <path id="Trazado_87" data-name="Trazado 87" d="M39.627,27.677a.76.76,0,0,0-.537,1.3L40.7,30.585l-.958.958-1.611-1.611-1.355-1.355A.76.76,0,0,0,35.7,29.651l2.966,2.966-.958.958-2.966-2.966a.76.76,0,0,0-1.3.537.767.767,0,0,0,.222.537l2.966,2.966-.958.958L32.714,32.64,27.3,27.222A.76.76,0,0,0,26.222,28.3l9.09,9.09.648.648L35,38.992l-.649-.648a4.045,4.045,0,0,0-5.1-.506L29,38.007a.646.646,0,0,0,.358,1.184h.1a6.107,6.107,0,0,1,3.9,1.413l1.376,1.146A4.743,4.743,0,0,0,37.1,42.8l2.884.412,6.895-6.9L46.1,34.379a4.708,4.708,0,0,0-1.049-1.592L40.164,27.9a.756.756,0,0,0-.536-.221Z" transform="translate(0.72 -3.674)" fill="#fff"/>
    <path id="Trazado_88" data-name="Trazado 88" d="M17,15v6.773h6.773V15H22.418v2.709H18.355V15Z" transform="translate(3.625 0.199)" fill="#fff"/>
    <path id="Trazado_89" data-name="Trazado 89" d="M9,39.945c0,1.117,1.48.959,1.48.959l-.126-29.769H33.381V22.8a1.981,1.981,0,0,1,1.355-.052V11.135A2.034,2.034,0,0,0,32.7,9.1H11.032A2.034,2.034,0,0,0,9,11.135v28.81Z" transform="translate(6.207 0)" fill="#fff"/>
    <path id="Trazado_90" data-name="Trazado 90" d="M55.034,42.32l-6.421,6.421L57,53.774V43.8Z" transform="translate(-6.578 -8.618)" fill="#fff"/>
    <path id="Trazado_91" data-name="Trazado 91" d="M27.3,30.641c.114,0,.226.009.338.016l-1.351-1.351-3.126-.02V26.18l-1.635-1.635H14.355V23.191h6.19a1.981,1.981,0,0,1,.052-1.355H14.355V12.355h9.482v8.563a2.109,2.109,0,0,1,.222.183l4.026,4.026a2.111,2.111,0,0,1,1.855-1.251,2.1,2.1,0,0,1,3.379-1.6V11H13V31.318h3.056V26.577H20.45v2.709H17.841c0,.02.009.039.01.06l-.01,1.972h6.867a5.365,5.365,0,0,1,2.589-.677Zm4.666-14.222H30.609V15.064h1.355Zm-6.773-4.064h6.773v1.355H25.191Zm0,2.709h4.064v1.355H25.191Zm0,2.709h6.773v1.355H25.191Zm0,2.709h6.773v1.355H25.191Z" transform="translate(4.916 1.49)" fill="#fff"/>
    <path id="Trazado_92" data-name="Trazado 92" d="M25.159,49.307a6.091,6.091,0,0,1-3.04-1.352l-1.376-1.146a4.735,4.735,0,0,0-2.428-1.046v1.978H12.9V45.032h3.221A1.91,1.91,0,0,1,15.751,43H5.572v3.809c.024.317,0,2.964,0,2.964H28.287l-.043-.026Z" transform="translate(12.469 -8.838)" fill="#fff"/>
  </g>
</svg>
